<svg version="1.1" id="Layer_1" xmlns="http://www.w3.org/2000/svg" xmlns:xlink="http://www.w3.org/1999/xlink" x="0px" y="0px"
	 width="100%" viewBox="0 0 224 112" enable-background="new 0 0 224 112" xml:space="preserve">
<path fill="#3b5998" opacity="1.000000" stroke="unset" 
	d="
M225.000000,99.531342 
	C221.476517,96.281006 218.307083,92.126152 214.364273,88.923370 
	C201.669403,78.611229 192.675842,78.537163 177.248444,87.966545 
	C166.264404,94.680099 162.519089,94.006477 154.743927,83.865013 
	C149.819641,77.442055 147.230896,69.906960 144.547089,62.409470 
	C140.473602,51.029659 137.497681,39.246574 131.827835,28.451458 
	C128.611420,22.327568 124.473557,16.945211 119.103127,12.671807 
	C108.974457,4.612116 88.947975,6.176830 79.177795,14.768523 
	C69.038605,23.684719 63.550892,35.298553 58.635612,47.307594 
	C55.838470,54.141582 51.911591,60.217953 47.815914,66.246765 
	C46.684731,67.911865 45.238255,68.459366 43.081657,67.807709 
	C39.669189,66.776543 36.811665,67.645691 35.460659,71.360252 
	C34.452415,74.132378 32.471573,73.336998 30.530426,72.739113 
	C24.751614,70.959190 19.713362,67.712196 14.591048,64.646416 
	C10.454163,62.170437 6.229232,59.889606 1.354998,58.092606 
	C1.000000,39.021893 1.000000,20.043785 1.000000,1.032838 
	C75.558731,1.032838 150.117477,1.032838 225.000000,1.032838 
	C225.000000,33.686848 225.000000,66.374763 225.000000,99.531342 
z"/>
</svg>