<svg
  version="1.1"
  id="Layer_1"
  xmlns="http://www.w3.org/2000/svg"
  xmlns:xlink="http://www.w3.org/1999/xlink"
  x="0px"
  y="0px"
  width="100%"
  viewBox="0 0 239 116"
  enable-background="new 0 0 239 116"
  xml:space="preserve"
  style="background: #d6249f;
    background: radial-gradient(circle at 30% 107%, #fdf497 0%, #fdf497 5%, #fd5949 45%, #d6249f 60%, #285AEB 90%);"
>
  <path
    fill="url(#bg-gradient)"
    opacity="1.000000"
    stroke="none"
    d="M1.000000,111.000000 
	C1.000000,74.376152 1.000000,37.752300 1.000000,1.064224 
	C80.666649,1.064224 160.333313,1.064224 240.000000,1.064224 
	C240.000000,9.415479 240.000000,17.739073 239.582962,26.531199 
	C233.890503,25.664351 228.517532,24.626106 223.359619,22.932795 
	C212.025299,19.211800 200.667664,19.448971 189.310013,22.324118 
	C168.718735,27.536734 152.683792,40.088295 139.761414,56.104366 
	C127.750359,70.990936 113.521866,82.376442 96.306763,90.167999 
	C87.110893,94.330048 77.589355,97.120079 67.623390,92.039467 
	C64.781151,90.590515 61.732796,89.542610 58.767712,88.338478 
	C51.472164,85.375725 44.370075,83.595886 36.339127,86.777695 
	C28.901863,89.724281 22.745375,93.914314 16.947491,99.317223 
	C12.160056,103.778503 6.354442,107.147171 1.000000,111.000000 
z"
  />
  <path
    fill="url(#bg-gradient-second)"
    opacity="1.000000"
    stroke="none"
    d="M1.000000,111.499474 
	C6.354442,107.147171 12.160056,103.778503 16.947491,99.317223 
	C22.745375,93.914314 28.901863,89.724281 36.339127,86.777695 
	C44.370075,83.595886 51.472164,85.375725 58.767712,88.338478 
	C61.732796,89.542610 64.781151,90.590515 67.623390,92.039467 
	C77.589355,97.120079 87.110893,94.330048 96.306763,90.167999 
	C113.521866,82.376442 127.750359,70.990936 139.761414,56.104366 
	C152.683792,40.088295 168.718735,27.536734 189.310013,22.324118 
	C200.667664,19.448971 212.025299,19.211800 223.359619,22.932795 
	C228.517532,24.626106 233.890503,25.664351 239.582962,26.999865 
	C240.000000,56.955257 240.000000,86.910515 240.000000,116.932884 
	C160.333374,116.932884 80.666695,116.932884 1.000000,116.932884 
	C1.000000,115.327278 1.000000,113.663116 1.000000,111.499474 
z"
  />
  <defs>
    <radialGradient id="bg-gradient" gradientUnits="userSpaceOnUse" cx="100" cy="80" r="110" fx="100" fy="137">
      <stop offset="0%" stop-color="#fdf497" />
      <stop offset="5%" stop-color="#fdf497" />
      <stop offset="45%" stop-color="#fd5949" />
      <stop offset="60%" stop-color="#d6249f" />
      <stop offset="90%" stop-color="#285AEB" />
    </radialGradient>
  </defs>
  <defs>
    <radialGradient id="bg-gradient-second" gradientUnits="userSpaceOnUse" cx="100" cy="140" r="130" fx="80" fy="157">
      <stop offset="0%" stop-color="#fdf497" />
      <stop offset="5%" stop-color="#fdf497" />
      <stop offset="45%" stop-color="#fd5949" />
      <stop offset="60%" stop-color="#d6249f" />
      <stop offset="90%" stop-color="#285AEB" />
    </radialGradient>
  </defs>
</svg>
