<svg version="1.1" id="Layer_1" xmlns="http://www.w3.org/2000/svg" xmlns:xlink="http://www.w3.org/1999/xlink" x="0px" y="0px"
	 width="100%" viewBox="0 0 239 116" enable-background="new 0 0 239 116" xml:space="preserve">
<path fill="#6187bb" opacity="1.000000" stroke="none" 
	d="
M240.000000,72.000000 
	C240.000000,86.982895 240.000000,101.965797 240.000000,116.974350 
	C160.441284,116.974350 80.882545,116.974350 1.000000,116.974350 
	C1.000000,83.979813 1.000000,50.958561 1.430479,17.468647 
	C14.161651,15.666219 26.472492,14.418242 38.759014,12.964723 
	C45.523590,12.164462 52.219135,10.632735 58.997410,10.138354 
	C65.621788,9.655197 72.270729,9.625974 78.587662,12.866483 
	C85.948792,16.642656 91.413277,22.361940 95.915131,28.958851 
	C101.888519,37.712093 107.040543,47.028236 113.063370,55.744667 
	C118.636978,63.810951 126.111168,69.560028 135.910889,72.089310 
	C142.558945,73.805153 149.220200,75.722900 155.562469,78.316048 
	C167.551788,83.218086 174.765717,93.639931 183.092987,102.866554 
	C191.710312,112.414597 197.724960,116.717949 208.556549,108.804619 
	C214.277893,104.624725 218.342911,98.139320 223.024170,92.583961 
	C228.754791,85.783310 234.347610,78.866562 240.000000,72.000000 
z"/>
<path fill="#4875b4" opacity="1.000000" stroke="none" 
	d="
M240.000000,71.531342 
	C234.347610,78.866562 228.754791,85.783310 223.024170,92.583961 
	C218.342911,98.139320 214.277893,104.624725 208.556549,108.804619 
	C197.724960,116.717949 191.710312,112.414597 183.092987,102.866554 
	C174.765717,93.639931 167.551788,83.218086 155.562469,78.316048 
	C149.220200,75.722900 142.558945,73.805153 135.910889,72.089310 
	C126.111168,69.560028 118.636978,63.810951 113.063370,55.744667 
	C107.040543,47.028236 101.888519,37.712093 95.915131,28.958851 
	C91.413277,22.361940 85.948792,16.642656 78.587662,12.866483 
	C72.270729,9.625974 65.621788,9.655197 58.997410,10.138354 
	C52.219135,10.632735 45.523590,12.164462 38.759014,12.964723 
	C26.472492,14.418242 14.161651,15.666219 1.430479,16.999989 
	C1.000000,11.673832 1.000000,6.347664 0.999999,1.016123 
	C80.552467,1.010748 160.104935,1.010748 240.000000,1.010748 
	C240.000000,24.353111 240.000000,47.707897 240.000000,71.531342 
z"/>
</svg>