<svg width="100%" viewBox="0 0 103 24" fill="none" xmlns="http://www.w3.org/2000/svg"><path d="M0.5 22.7464L2 23C3.40972 23.1524 5.42201 18.0581 8.95833 16.9517C12 16 14.5972 23.4341 17.4167 20.4309C20.2361 17.4277 19 9.50002 25.5 9.50002C31 9.50002 30 4.00002 33 4.00002C35.8428 4.00002 40 13 42.7917 11.0655C47.3252 7.92391 48.4306 14.016 51.25 11.4384C54.0694 8.86075 56.5 12.5 59.7083 8.22399C63.3559 3.36252 65.4888 0.499985 68.5 0.499985C73 0.499985 73.5 7.00001 78.5 6.5C84.9677 5.85322 82.2931 2.58281 85 1.50002C87.5 0.500003 90.7222 11.8656 93.5417 8.93639C97.5 4.00002 99.1806 7.12226 100.59 7.6798L102 8.23734" stroke="#6366F1"></path></svg>