<svg version="1.1" id="Layer_1" xmlns="http://www.w3.org/2000/svg" xmlns:xlink="http://www.w3.org/1999/xlink" x="0px" y="0px"
	 width="100%" viewBox="0 0 239 116" enable-background="new 0 0 239 116" xml:space="preserve">
<path fill="#d34949" opacity="1.000000" stroke="none" 
	d="
M1.000000,94.000000 
	C1.000000,63.035439 1.000000,32.070877 1.000000,1.059950 
	C80.666672,1.059950 160.333344,1.059950 240.000000,1.059950 
	C240.000000,17.767494 240.000000,34.415089 239.658203,51.609825 
	C238.556854,53.021587 237.589020,53.776871 237.069077,54.767281 
	C229.674896,68.851929 222.474899,83.040581 214.912247,97.033470 
	C212.626831,101.262093 209.502762,105.067421 206.531006,108.886230 
	C203.883041,112.288948 200.684143,112.067497 198.349396,108.708351 
	C195.897156,105.180183 193.228500,101.435509 192.141083,97.386208 
	C185.850632,73.962250 180.195602,50.367443 173.884094,26.949430 
	C171.907104,19.613985 170.696426,11.757977 164.622543,6.032614 
	C161.501007,3.090211 159.082474,3.231224 156.249634,6.211040 
	C148.688080,14.164966 147.510925,24.655220 145.072052,34.559704 
	C141.454834,49.249619 138.822754,64.196686 134.809692,78.769470 
	C132.110565,88.570938 128.143326,98.089142 124.012108,107.409935 
	C120.558571,115.201736 116.437370,112.585815 113.134567,107.089668 
	C108.013039,98.567009 103.975220,89.393707 98.865250,80.863289 
	C95.717400,75.608368 91.726044,70.763741 87.563103,66.241470 
	C84.132736,62.515003 77.876717,62.419285 74.023651,65.583351 
	C71.758240,67.443665 69.555214,69.647530 68.069160,72.140907 
	C62.885193,80.838829 58.437515,90.001160 52.882000,98.442024 
	C49.765984,103.176384 45.655121,107.923058 40.859825,110.727325 
	C33.825607,114.840904 27.668972,109.345490 21.713804,106.118156 
	C14.684569,102.308746 7.894026,98.058899 1.000000,94.000000 
z"/>
<path fill="#e16c6c" opacity="1.000000" stroke="none" 
	d="
M1.000000,94.468735 
	C7.894026,98.058899 14.684569,102.308746 21.713804,106.118156 
	C27.668972,109.345490 33.825607,114.840904 40.859825,110.727325 
	C45.655121,107.923058 49.765984,103.176384 52.882000,98.442024 
	C58.437515,90.001160 62.885193,80.838829 68.069160,72.140907 
	C69.555214,69.647530 71.758240,67.443665 74.023651,65.583351 
	C77.876717,62.419285 84.132736,62.515003 87.563103,66.241470 
	C91.726044,70.763741 95.717400,75.608368 98.865250,80.863289 
	C103.975220,89.393707 108.013039,98.567009 113.134567,107.089668 
	C116.437370,112.585815 120.558571,115.201736 124.012108,107.409935 
	C128.143326,98.089142 132.110565,88.570938 134.809692,78.769470 
	C138.822754,64.196686 141.454834,49.249619 145.072052,34.559704 
	C147.510925,24.655220 148.688080,14.164966 156.249634,6.211040 
	C159.082474,3.231224 161.501007,3.090211 164.622543,6.032614 
	C170.696426,11.757977 171.907104,19.613985 173.884094,26.949430 
	C180.195602,50.367443 185.850632,73.962250 192.141083,97.386208 
	C193.228500,101.435509 195.897156,105.180183 198.349396,108.708351 
	C200.684143,112.067497 203.883041,112.288948 206.531006,108.886230 
	C209.502762,105.067421 212.626831,101.262093 214.912247,97.033470 
	C222.474899,83.040581 229.674896,68.851929 237.069077,54.767281 
	C237.589020,53.776871 238.556854,53.021587 239.658203,52.078484 
	C240.000000,73.637634 240.000000,95.275276 240.000000,116.953979 
	C160.333328,116.953979 80.666664,116.953979 1.000000,116.953979 
	C1.000000,109.584473 1.000000,102.260971 1.000000,94.468735 
z"/>
</svg>